<mxfile host="app.diagrams.net" modified="2023-04-01T21:48:10.107Z" agent="Mozilla/5.0 (Macintosh; Intel Mac OS X 10_15_7) AppleWebKit/537.36 (KHTML, like Gecko) Chrome/111.0.0.0 Safari/537.36" etag="z6xOt_5FiB0Uum3-M9n4" version="21.1.2" type="github">
  <diagram id="R2lEEEUBdFMjLlhIrx00" name="Page-1">
    <mxGraphModel dx="1728" dy="990" grid="1" gridSize="10" guides="1" tooltips="1" connect="1" arrows="1" fold="1" page="1" pageScale="1" pageWidth="850" pageHeight="1100" math="0" shadow="0" extFonts="Permanent Marker^https://fonts.googleapis.com/css?family=Permanent+Marker">
      <root>
        <mxCell id="0" />
        <mxCell id="1" parent="0" />
        <mxCell id="zAh7T7VeR0X0RpMaVZyu-1" value="User" style="rounded=0;whiteSpace=wrap;html=1;" vertex="1" parent="1">
          <mxGeometry x="340" y="270" width="120" height="30" as="geometry" />
        </mxCell>
        <mxCell id="zAh7T7VeR0X0RpMaVZyu-2" value="user_type" style="ellipse;whiteSpace=wrap;html=1;" vertex="1" parent="1">
          <mxGeometry x="170" y="200" width="100" height="30" as="geometry" />
        </mxCell>
        <mxCell id="zAh7T7VeR0X0RpMaVZyu-5" value="" style="endArrow=none;html=1;rounded=0;exitX=0.672;exitY=0.999;exitDx=0;exitDy=0;exitPerimeter=0;entryX=0.083;entryY=0;entryDx=0;entryDy=0;entryPerimeter=0;" edge="1" parent="1" source="zAh7T7VeR0X0RpMaVZyu-2" target="zAh7T7VeR0X0RpMaVZyu-1">
          <mxGeometry width="50" height="50" relative="1" as="geometry">
            <mxPoint x="460" y="330" as="sourcePoint" />
            <mxPoint x="510" y="280" as="targetPoint" />
          </mxGeometry>
        </mxCell>
        <mxCell id="zAh7T7VeR0X0RpMaVZyu-6" value="&lt;u&gt;username&lt;/u&gt;" style="ellipse;whiteSpace=wrap;html=1;" vertex="1" parent="1">
          <mxGeometry x="280" y="200" width="100" height="30" as="geometry" />
        </mxCell>
        <mxCell id="zAh7T7VeR0X0RpMaVZyu-7" value="" style="endArrow=none;html=1;rounded=0;exitX=0.672;exitY=0.999;exitDx=0;exitDy=0;exitPerimeter=0;entryX=0.5;entryY=0;entryDx=0;entryDy=0;" edge="1" parent="1" target="zAh7T7VeR0X0RpMaVZyu-1">
          <mxGeometry width="50" height="50" relative="1" as="geometry">
            <mxPoint x="360" y="230" as="sourcePoint" />
            <mxPoint x="403" y="270" as="targetPoint" />
          </mxGeometry>
        </mxCell>
        <mxCell id="zAh7T7VeR0X0RpMaVZyu-8" value="password" style="ellipse;whiteSpace=wrap;html=1;" vertex="1" parent="1">
          <mxGeometry x="390" y="200" width="100" height="30" as="geometry" />
        </mxCell>
        <mxCell id="zAh7T7VeR0X0RpMaVZyu-9" value="name" style="ellipse;whiteSpace=wrap;html=1;" vertex="1" parent="1">
          <mxGeometry x="500" y="200" width="100" height="30" as="geometry" />
        </mxCell>
        <mxCell id="zAh7T7VeR0X0RpMaVZyu-10" value="" style="endArrow=none;html=1;rounded=0;exitX=0.683;exitY=-0.001;exitDx=0;exitDy=0;exitPerimeter=0;" edge="1" parent="1" source="zAh7T7VeR0X0RpMaVZyu-1">
          <mxGeometry width="50" height="50" relative="1" as="geometry">
            <mxPoint x="390" y="280" as="sourcePoint" />
            <mxPoint x="440" y="230" as="targetPoint" />
          </mxGeometry>
        </mxCell>
        <mxCell id="zAh7T7VeR0X0RpMaVZyu-11" value="" style="endArrow=none;html=1;rounded=0;entryX=0.547;entryY=1.021;entryDx=0;entryDy=0;entryPerimeter=0;" edge="1" parent="1" target="zAh7T7VeR0X0RpMaVZyu-9">
          <mxGeometry width="50" height="50" relative="1" as="geometry">
            <mxPoint x="460" y="270" as="sourcePoint" />
            <mxPoint x="560" y="240" as="targetPoint" />
            <Array as="points" />
          </mxGeometry>
        </mxCell>
        <mxCell id="zAh7T7VeR0X0RpMaVZyu-12" value="surname" style="ellipse;whiteSpace=wrap;html=1;" vertex="1" parent="1">
          <mxGeometry x="170" y="270" width="100" height="30" as="geometry" />
        </mxCell>
        <mxCell id="zAh7T7VeR0X0RpMaVZyu-13" value="" style="endArrow=none;html=1;rounded=0;entryX=0;entryY=0.5;entryDx=0;entryDy=0;" edge="1" parent="1" source="zAh7T7VeR0X0RpMaVZyu-12" target="zAh7T7VeR0X0RpMaVZyu-1">
          <mxGeometry width="50" height="50" relative="1" as="geometry">
            <mxPoint x="460" y="330" as="sourcePoint" />
            <mxPoint x="510" y="280" as="targetPoint" />
          </mxGeometry>
        </mxCell>
        <mxCell id="zAh7T7VeR0X0RpMaVZyu-14" value="" style="endArrow=none;html=1;rounded=0;entryX=0.5;entryY=1;entryDx=0;entryDy=0;" edge="1" parent="1" target="zAh7T7VeR0X0RpMaVZyu-1">
          <mxGeometry width="50" height="50" relative="1" as="geometry">
            <mxPoint x="400" y="360" as="sourcePoint" />
            <mxPoint x="470" y="330" as="targetPoint" />
          </mxGeometry>
        </mxCell>
        <mxCell id="zAh7T7VeR0X0RpMaVZyu-16" value="ISA" style="triangle;whiteSpace=wrap;html=1;direction=north;" vertex="1" parent="1">
          <mxGeometry x="360" y="350" width="80" height="60" as="geometry" />
        </mxCell>
        <mxCell id="zAh7T7VeR0X0RpMaVZyu-17" value="Audience" style="rounded=0;whiteSpace=wrap;html=1;" vertex="1" parent="1">
          <mxGeometry x="210" y="420" width="120" height="40" as="geometry" />
        </mxCell>
        <mxCell id="zAh7T7VeR0X0RpMaVZyu-18" value="Director" style="rounded=0;whiteSpace=wrap;html=1;" vertex="1" parent="1">
          <mxGeometry x="460" y="420" width="120" height="40" as="geometry" />
        </mxCell>
        <mxCell id="zAh7T7VeR0X0RpMaVZyu-19" value="" style="endArrow=none;html=1;rounded=0;exitX=1.001;exitY=0.398;exitDx=0;exitDy=0;exitPerimeter=0;" edge="1" parent="1" source="zAh7T7VeR0X0RpMaVZyu-17">
          <mxGeometry width="50" height="50" relative="1" as="geometry">
            <mxPoint x="330" y="450" as="sourcePoint" />
            <mxPoint x="370" y="410" as="targetPoint" />
          </mxGeometry>
        </mxCell>
        <mxCell id="zAh7T7VeR0X0RpMaVZyu-20" value="" style="endArrow=none;html=1;rounded=0;exitX=0;exitY=0.25;exitDx=0;exitDy=0;" edge="1" parent="1" source="zAh7T7VeR0X0RpMaVZyu-18">
          <mxGeometry width="50" height="50" relative="1" as="geometry">
            <mxPoint x="390" y="450" as="sourcePoint" />
            <mxPoint x="430" y="410" as="targetPoint" />
          </mxGeometry>
        </mxCell>
        <mxCell id="zAh7T7VeR0X0RpMaVZyu-21" value="username" style="ellipse;whiteSpace=wrap;html=1;" vertex="1" parent="1">
          <mxGeometry x="110" y="365" width="100" height="30" as="geometry" />
        </mxCell>
        <mxCell id="zAh7T7VeR0X0RpMaVZyu-22" value="" style="endArrow=none;html=1;rounded=0;exitX=0;exitY=0.25;exitDx=0;exitDy=0;" edge="1" parent="1" source="zAh7T7VeR0X0RpMaVZyu-17" target="zAh7T7VeR0X0RpMaVZyu-21">
          <mxGeometry width="50" height="50" relative="1" as="geometry">
            <mxPoint x="260" y="420" as="sourcePoint" />
            <mxPoint x="310" y="370" as="targetPoint" />
          </mxGeometry>
        </mxCell>
        <mxCell id="zAh7T7VeR0X0RpMaVZyu-23" value="username" style="ellipse;whiteSpace=wrap;html=1;" vertex="1" parent="1">
          <mxGeometry x="450" y="360" width="100" height="30" as="geometry" />
        </mxCell>
        <mxCell id="zAh7T7VeR0X0RpMaVZyu-24" value="nation" style="ellipse;whiteSpace=wrap;html=1;" vertex="1" parent="1">
          <mxGeometry x="570" y="360" width="100" height="30" as="geometry" />
        </mxCell>
        <mxCell id="zAh7T7VeR0X0RpMaVZyu-25" value="pId" style="ellipse;whiteSpace=wrap;html=1;" vertex="1" parent="1">
          <mxGeometry x="690" y="360" width="100" height="30" as="geometry" />
        </mxCell>
        <mxCell id="zAh7T7VeR0X0RpMaVZyu-26" value="" style="endArrow=none;html=1;rounded=0;exitX=0.318;exitY=-0.052;exitDx=0;exitDy=0;exitPerimeter=0;" edge="1" parent="1" source="zAh7T7VeR0X0RpMaVZyu-18">
          <mxGeometry width="50" height="50" relative="1" as="geometry">
            <mxPoint x="530" y="410" as="sourcePoint" />
            <mxPoint x="500" y="390" as="targetPoint" />
          </mxGeometry>
        </mxCell>
        <mxCell id="zAh7T7VeR0X0RpMaVZyu-27" value="" style="endArrow=none;html=1;rounded=0;exitX=0.863;exitY=-0.012;exitDx=0;exitDy=0;exitPerimeter=0;" edge="1" parent="1" source="zAh7T7VeR0X0RpMaVZyu-18">
          <mxGeometry width="50" height="50" relative="1" as="geometry">
            <mxPoint x="650" y="410" as="sourcePoint" />
            <mxPoint x="620" y="390" as="targetPoint" />
          </mxGeometry>
        </mxCell>
        <mxCell id="zAh7T7VeR0X0RpMaVZyu-28" value="" style="endArrow=none;html=1;rounded=0;exitX=1.003;exitY=0.186;exitDx=0;exitDy=0;exitPerimeter=0;" edge="1" parent="1" source="zAh7T7VeR0X0RpMaVZyu-18">
          <mxGeometry width="50" height="50" relative="1" as="geometry">
            <mxPoint x="770" y="410" as="sourcePoint" />
            <mxPoint x="740" y="390" as="targetPoint" />
          </mxGeometry>
        </mxCell>
        <mxCell id="zAh7T7VeR0X0RpMaVZyu-31" value="Movie" style="rounded=0;whiteSpace=wrap;html=1;" vertex="1" parent="1">
          <mxGeometry x="340" y="580" width="120" height="30" as="geometry" />
        </mxCell>
        <mxCell id="zAh7T7VeR0X0RpMaVZyu-32" value="pId" style="ellipse;whiteSpace=wrap;html=1;" vertex="1" parent="1">
          <mxGeometry x="490" y="670" width="100" height="30" as="geometry" />
        </mxCell>
        <mxCell id="zAh7T7VeR0X0RpMaVZyu-33" value="avg_rating" style="ellipse;whiteSpace=wrap;html=1;" vertex="1" parent="1">
          <mxGeometry x="520" y="620" width="100" height="30" as="geometry" />
        </mxCell>
        <mxCell id="zAh7T7VeR0X0RpMaVZyu-34" value="director_username" style="ellipse;whiteSpace=wrap;html=1;" vertex="1" parent="1">
          <mxGeometry x="240" y="658.32" width="100" height="30" as="geometry" />
        </mxCell>
        <mxCell id="zAh7T7VeR0X0RpMaVZyu-35" value="duration" style="ellipse;whiteSpace=wrap;html=1;" vertex="1" parent="1">
          <mxGeometry x="180" y="610" width="100" height="30" as="geometry" />
        </mxCell>
        <mxCell id="zAh7T7VeR0X0RpMaVZyu-36" value="name" style="ellipse;whiteSpace=wrap;html=1;" vertex="1" parent="1">
          <mxGeometry x="160" y="560" width="100" height="30" as="geometry" />
        </mxCell>
        <mxCell id="zAh7T7VeR0X0RpMaVZyu-37" value="&lt;u&gt;mId&lt;/u&gt;" style="ellipse;whiteSpace=wrap;html=1;" vertex="1" parent="1">
          <mxGeometry x="190" y="520" width="100" height="30" as="geometry" />
        </mxCell>
        <mxCell id="zAh7T7VeR0X0RpMaVZyu-38" value="" style="endArrow=none;html=1;rounded=0;exitX=0.301;exitY=1.083;exitDx=0;exitDy=0;exitPerimeter=0;" edge="1" parent="1" source="zAh7T7VeR0X0RpMaVZyu-31" target="zAh7T7VeR0X0RpMaVZyu-34">
          <mxGeometry width="50" height="50" relative="1" as="geometry">
            <mxPoint x="360" y="620" as="sourcePoint" />
            <mxPoint x="360" y="638.32" as="targetPoint" />
          </mxGeometry>
        </mxCell>
        <mxCell id="zAh7T7VeR0X0RpMaVZyu-39" value="" style="endArrow=none;html=1;rounded=0;entryX=0.203;entryY=0.112;entryDx=0;entryDy=0;exitX=0.878;exitY=1.083;exitDx=0;exitDy=0;entryPerimeter=0;exitPerimeter=0;" edge="1" parent="1" source="zAh7T7VeR0X0RpMaVZyu-31" target="zAh7T7VeR0X0RpMaVZyu-32">
          <mxGeometry width="50" height="50" relative="1" as="geometry">
            <mxPoint x="470" y="609" as="sourcePoint" />
            <mxPoint x="540" y="609" as="targetPoint" />
          </mxGeometry>
        </mxCell>
        <mxCell id="zAh7T7VeR0X0RpMaVZyu-40" value="" style="endArrow=none;html=1;rounded=0;entryX=0;entryY=0.5;entryDx=0;entryDy=0;exitX=1;exitY=0.75;exitDx=0;exitDy=0;" edge="1" parent="1" source="zAh7T7VeR0X0RpMaVZyu-31" target="zAh7T7VeR0X0RpMaVZyu-33">
          <mxGeometry width="50" height="50" relative="1" as="geometry">
            <mxPoint x="470" y="564.58" as="sourcePoint" />
            <mxPoint x="540" y="564.58" as="targetPoint" />
          </mxGeometry>
        </mxCell>
        <mxCell id="zAh7T7VeR0X0RpMaVZyu-41" value="" style="endArrow=none;html=1;rounded=0;entryX=0.183;entryY=1.056;entryDx=0;entryDy=0;entryPerimeter=0;exitX=1;exitY=0.5;exitDx=0;exitDy=0;" edge="1" parent="1" source="zAh7T7VeR0X0RpMaVZyu-35" target="zAh7T7VeR0X0RpMaVZyu-31">
          <mxGeometry width="50" height="50" relative="1" as="geometry">
            <mxPoint x="310" y="640" as="sourcePoint" />
            <mxPoint x="380" y="640" as="targetPoint" />
          </mxGeometry>
        </mxCell>
        <mxCell id="zAh7T7VeR0X0RpMaVZyu-42" value="" style="endArrow=none;html=1;rounded=0;entryX=0;entryY=0.75;entryDx=0;entryDy=0;exitX=1;exitY=0.5;exitDx=0;exitDy=0;" edge="1" parent="1" source="zAh7T7VeR0X0RpMaVZyu-36" target="zAh7T7VeR0X0RpMaVZyu-31">
          <mxGeometry width="50" height="50" relative="1" as="geometry">
            <mxPoint x="270" y="609" as="sourcePoint" />
            <mxPoint x="340" y="609" as="targetPoint" />
          </mxGeometry>
        </mxCell>
        <mxCell id="zAh7T7VeR0X0RpMaVZyu-43" value="" style="endArrow=none;html=1;rounded=0;entryX=0;entryY=0;entryDx=0;entryDy=0;exitX=1;exitY=1;exitDx=0;exitDy=0;" edge="1" parent="1" source="zAh7T7VeR0X0RpMaVZyu-37" target="zAh7T7VeR0X0RpMaVZyu-31">
          <mxGeometry width="50" height="50" relative="1" as="geometry">
            <mxPoint x="270" y="564.58" as="sourcePoint" />
            <mxPoint x="340" y="564.58" as="targetPoint" />
          </mxGeometry>
        </mxCell>
        <mxCell id="zAh7T7VeR0X0RpMaVZyu-44" value="shoots" style="rhombus;whiteSpace=wrap;html=1;" vertex="1" parent="1">
          <mxGeometry x="440" y="490" width="60" height="60" as="geometry" />
        </mxCell>
        <mxCell id="zAh7T7VeR0X0RpMaVZyu-45" value="" style="endArrow=classic;html=1;rounded=0;entryX=0;entryY=1;entryDx=0;entryDy=0;" edge="1" parent="1" target="zAh7T7VeR0X0RpMaVZyu-44">
          <mxGeometry width="50" height="50" relative="1" as="geometry">
            <mxPoint x="410" y="580" as="sourcePoint" />
            <mxPoint x="450" y="540" as="targetPoint" />
          </mxGeometry>
        </mxCell>
        <mxCell id="zAh7T7VeR0X0RpMaVZyu-46" value="" style="endArrow=none;html=1;rounded=0;exitX=1;exitY=0;exitDx=0;exitDy=0;" edge="1" parent="1" source="zAh7T7VeR0X0RpMaVZyu-44">
          <mxGeometry width="50" height="50" relative="1" as="geometry">
            <mxPoint x="480" y="510" as="sourcePoint" />
            <mxPoint x="530" y="460" as="targetPoint" />
          </mxGeometry>
        </mxCell>
        <mxCell id="zAh7T7VeR0X0RpMaVZyu-47" value="Platform" style="rounded=0;whiteSpace=wrap;html=1;" vertex="1" parent="1">
          <mxGeometry x="760" y="500" width="120" height="40" as="geometry" />
        </mxCell>
        <mxCell id="zAh7T7VeR0X0RpMaVZyu-48" value="name" style="ellipse;whiteSpace=wrap;html=1;" vertex="1" parent="1">
          <mxGeometry x="920" y="570" width="100" height="30" as="geometry" />
        </mxCell>
        <mxCell id="zAh7T7VeR0X0RpMaVZyu-49" value="pId" style="ellipse;whiteSpace=wrap;html=1;" vertex="1" parent="1">
          <mxGeometry x="920" y="450" width="100" height="30" as="geometry" />
        </mxCell>
        <mxCell id="zAh7T7VeR0X0RpMaVZyu-50" value="" style="endArrow=none;html=1;rounded=0;exitX=1;exitY=0.75;exitDx=0;exitDy=0;" edge="1" parent="1" source="zAh7T7VeR0X0RpMaVZyu-47">
          <mxGeometry width="50" height="50" relative="1" as="geometry">
            <mxPoint x="875" y="625" as="sourcePoint" />
            <mxPoint x="920" y="580" as="targetPoint" />
          </mxGeometry>
        </mxCell>
        <mxCell id="zAh7T7VeR0X0RpMaVZyu-51" value="" style="endArrow=none;html=1;rounded=0;exitX=1;exitY=0;exitDx=0;exitDy=0;" edge="1" parent="1">
          <mxGeometry width="50" height="50" relative="1" as="geometry">
            <mxPoint x="880" y="510" as="sourcePoint" />
            <mxPoint x="925" y="465" as="targetPoint" />
          </mxGeometry>
        </mxCell>
        <mxCell id="zAh7T7VeR0X0RpMaVZyu-52" value="in agreement with" style="rhombus;whiteSpace=wrap;html=1;" vertex="1" parent="1">
          <mxGeometry x="640" y="450" width="70" height="70" as="geometry" />
        </mxCell>
        <mxCell id="zAh7T7VeR0X0RpMaVZyu-53" value="" style="rhombus;whiteSpace=wrap;html=1;" vertex="1" parent="1">
          <mxGeometry x="730" y="100" width="60" height="60" as="geometry" />
        </mxCell>
        <mxCell id="zAh7T7VeR0X0RpMaVZyu-54" value="" style="rounded=0;whiteSpace=wrap;html=1;" vertex="1" parent="1">
          <mxGeometry x="800" y="110" width="120" height="40" as="geometry" />
        </mxCell>
        <mxCell id="zAh7T7VeR0X0RpMaVZyu-55" value="" style="ellipse;whiteSpace=wrap;html=1;" vertex="1" parent="1">
          <mxGeometry x="940" y="115" width="100" height="30" as="geometry" />
        </mxCell>
        <mxCell id="zAh7T7VeR0X0RpMaVZyu-58" value="" style="endArrow=classic;html=1;rounded=0;exitX=1;exitY=0.75;exitDx=0;exitDy=0;" edge="1" parent="1" source="zAh7T7VeR0X0RpMaVZyu-18" target="zAh7T7VeR0X0RpMaVZyu-52">
          <mxGeometry width="50" height="50" relative="1" as="geometry">
            <mxPoint x="880" y="590" as="sourcePoint" />
            <mxPoint x="930" y="540" as="targetPoint" />
          </mxGeometry>
        </mxCell>
        <mxCell id="zAh7T7VeR0X0RpMaVZyu-59" value="" style="endArrow=none;html=1;rounded=0;entryX=0;entryY=0.5;entryDx=0;entryDy=0;" edge="1" parent="1">
          <mxGeometry width="50" height="50" relative="1" as="geometry">
            <mxPoint x="825" y="180" as="sourcePoint" />
            <mxPoint x="895" y="180" as="targetPoint" />
          </mxGeometry>
        </mxCell>
        <mxCell id="zAh7T7VeR0X0RpMaVZyu-60" value="" style="endArrow=none;html=1;rounded=0;entryX=0;entryY=0.5;entryDx=0;entryDy=0;exitX=1;exitY=1;exitDx=0;exitDy=0;" edge="1" parent="1" source="zAh7T7VeR0X0RpMaVZyu-52">
          <mxGeometry width="50" height="50" relative="1" as="geometry">
            <mxPoint x="690" y="519.1700000000001" as="sourcePoint" />
            <mxPoint x="760" y="519.1700000000001" as="targetPoint" />
          </mxGeometry>
        </mxCell>
        <mxCell id="zAh7T7VeR0X0RpMaVZyu-61" value="" style="endArrow=classic;html=1;rounded=0;exitX=1;exitY=0.25;exitDx=0;exitDy=0;" edge="1" target="zAh7T7VeR0X0RpMaVZyu-62" parent="1" source="zAh7T7VeR0X0RpMaVZyu-31">
          <mxGeometry width="50" height="50" relative="1" as="geometry">
            <mxPoint x="520" y="550" as="sourcePoint" />
            <mxPoint x="870" y="640" as="targetPoint" />
          </mxGeometry>
        </mxCell>
        <mxCell id="zAh7T7VeR0X0RpMaVZyu-62" value="??" style="rhombus;whiteSpace=wrap;html=1;" vertex="1" parent="1">
          <mxGeometry x="570" y="540" width="70" height="70" as="geometry" />
        </mxCell>
        <mxCell id="zAh7T7VeR0X0RpMaVZyu-63" value="" style="endArrow=none;html=1;rounded=0;entryX=0;entryY=0.75;entryDx=0;entryDy=0;exitX=0.91;exitY=0.357;exitDx=0;exitDy=0;exitPerimeter=0;" edge="1" source="zAh7T7VeR0X0RpMaVZyu-62" parent="1" target="zAh7T7VeR0X0RpMaVZyu-47">
          <mxGeometry width="50" height="50" relative="1" as="geometry">
            <mxPoint x="630" y="619.1700000000001" as="sourcePoint" />
            <mxPoint x="700" y="619.1700000000001" as="targetPoint" />
          </mxGeometry>
        </mxCell>
        <mxCell id="zAh7T7VeR0X0RpMaVZyu-64" value="Theatre" style="rounded=0;whiteSpace=wrap;html=1;" vertex="1" parent="1">
          <mxGeometry x="170" y="830" width="120" height="40" as="geometry" />
        </mxCell>
        <mxCell id="zAh7T7VeR0X0RpMaVZyu-65" value="Session" style="rounded=0;whiteSpace=wrap;html=1;" vertex="1" parent="1">
          <mxGeometry x="540" y="820" width="120" height="40" as="geometry" />
        </mxCell>
        <mxCell id="zAh7T7VeR0X0RpMaVZyu-66" value="district" style="ellipse;whiteSpace=wrap;html=1;" vertex="1" parent="1">
          <mxGeometry x="30" y="940" width="100" height="30" as="geometry" />
        </mxCell>
        <mxCell id="zAh7T7VeR0X0RpMaVZyu-67" value="capacity" style="ellipse;whiteSpace=wrap;html=1;" vertex="1" parent="1">
          <mxGeometry x="30" y="870" width="100" height="30" as="geometry" />
        </mxCell>
        <mxCell id="zAh7T7VeR0X0RpMaVZyu-68" value="name" style="ellipse;whiteSpace=wrap;html=1;" vertex="1" parent="1">
          <mxGeometry x="30" y="810" width="100" height="30" as="geometry" />
        </mxCell>
        <mxCell id="zAh7T7VeR0X0RpMaVZyu-69" value="&lt;u&gt;tId&lt;/u&gt;" style="ellipse;whiteSpace=wrap;html=1;" vertex="1" parent="1">
          <mxGeometry x="30" y="760" width="100" height="30" as="geometry" />
        </mxCell>
        <mxCell id="zAh7T7VeR0X0RpMaVZyu-70" value="" style="endArrow=none;html=1;rounded=0;entryX=0.149;entryY=1.063;entryDx=0;entryDy=0;entryPerimeter=0;" edge="1" parent="1" target="zAh7T7VeR0X0RpMaVZyu-64">
          <mxGeometry width="50" height="50" relative="1" as="geometry">
            <mxPoint x="130" y="954.58" as="sourcePoint" />
            <mxPoint x="200" y="954.58" as="targetPoint" />
          </mxGeometry>
        </mxCell>
        <mxCell id="zAh7T7VeR0X0RpMaVZyu-71" value="" style="endArrow=none;html=1;rounded=0;entryX=0;entryY=0.75;entryDx=0;entryDy=0;" edge="1" parent="1" target="zAh7T7VeR0X0RpMaVZyu-64">
          <mxGeometry width="50" height="50" relative="1" as="geometry">
            <mxPoint x="130" y="884.58" as="sourcePoint" />
            <mxPoint x="200" y="884.58" as="targetPoint" />
          </mxGeometry>
        </mxCell>
        <mxCell id="zAh7T7VeR0X0RpMaVZyu-72" value="" style="endArrow=none;html=1;rounded=0;entryX=0;entryY=0.25;entryDx=0;entryDy=0;" edge="1" parent="1" target="zAh7T7VeR0X0RpMaVZyu-64">
          <mxGeometry width="50" height="50" relative="1" as="geometry">
            <mxPoint x="130" y="824.58" as="sourcePoint" />
            <mxPoint x="200" y="824.58" as="targetPoint" />
          </mxGeometry>
        </mxCell>
        <mxCell id="zAh7T7VeR0X0RpMaVZyu-73" value="" style="endArrow=none;html=1;rounded=0;entryX=0.25;entryY=0;entryDx=0;entryDy=0;" edge="1" parent="1" target="zAh7T7VeR0X0RpMaVZyu-64">
          <mxGeometry width="50" height="50" relative="1" as="geometry">
            <mxPoint x="130" y="774.58" as="sourcePoint" />
            <mxPoint x="200" y="774.58" as="targetPoint" />
          </mxGeometry>
        </mxCell>
      </root>
    </mxGraphModel>
  </diagram>
</mxfile>
